<svg version="1.0" xmlns="http://www.w3.org/2000/svg"
 width="512.000000pt" height="512.000000pt" viewBox="0 0 512.000000 512.000000"
 preserveAspectRatio="xMidYMid meet">

<g transform="translate(0.000000,512.000000) scale(0.100000,-0.100000)"
fill="#000000" stroke="none">
<path d="M2409 4715 c-390 -61 -697 -352 -780 -740 -14 -68 -18 -247 -6 -317
8 -47 9 -48 153 -150 87 -62 147 -111 149 -123 2 -11 11 -78 20 -150 8 -71 18
-142 21 -157 l6 -28 239 0 c221 0 241 -1 271 -20 20 -12 51 -20 78 -20 27 0
58 8 78 20 30 19 50 20 271 20 l239 0 6 28 c3 15 12 86 21 157 9 72 18 139 20
150 3 12 62 61 149 123 144 102 145 103 153 150 12 70 8 249 -6 317 -84 393
-391 680 -789 740 -116 18 -178 18 -293 0z m114 -252 c4 -49 12 -244 18 -435
7 -192 15 -348 19 -348 4 0 12 156 19 348 6 191 15 387 18 436 l6 89 73 -6
c89 -7 168 -38 160 -64 -12 -43 -167 -835 -164 -839 2 -2 55 176 118 396 63
220 117 405 121 411 10 17 111 -38 159 -86 l42 -43 -142 -303 c-189 -402 -213
-456 -202 -444 5 6 87 145 182 310 95 165 182 315 193 334 l20 34 29 -34 c30
-35 88 -144 88 -166 0 -6 -99 -134 -221 -285 l-221 -273 230 229 230 229 16
-53 c18 -59 21 -155 7 -192 -5 -14 -69 -68 -148 -125 l-139 -101 -13 -114 c-7
-62 -15 -125 -18 -140 l-5 -28 -175 0 c-163 0 -177 -1 -205 -22 -17 -12 -43
-21 -58 -21 -15 0 -41 9 -58 21 -28 21 -42 22 -205 22 l-174 0 -6 28 c-3 15
-11 78 -18 140 l-13 114 -139 101 c-85 61 -143 111 -149 126 -13 33 -4 177 13
214 l13 28 224 -223 225 -223 -149 185 c-82 102 -179 222 -216 268 -38 46 -68
89 -68 95 0 22 58 131 88 166 l29 34 150 -259 c83 -142 172 -296 198 -341 87
-151 82 -139 -155 366 l-142 303 42 43 c48 48 149 103 159 86 4 -6 58 -191
121 -411 63 -220 116 -398 118 -396 3 4 -152 795 -164 838 -9 31 84 65 182 67
l51 1 6 -87z"/>
<path d="M2451 3614 c0 -11 3 -14 6 -6 3 7 2 16 -1 19 -3 4 -6 -2 -5 -13z"/>
<path d="M2661 3614 c0 -11 3 -14 6 -6 3 7 2 16 -1 19 -3 4 -6 -2 -5 -13z"/>
<path d="M0 1280 l0 -1280 2560 0 2560 0 0 1280 0 1280 -2560 0 -2560 0 0
-1280z m2915 794 c17 -18 25 -39 25 -63 0 -32 -12 -47 -133 -168 -121 -121
-136 -133 -169 -133 -51 0 -88 39 -88 93 0 39 6 47 128 169 124 124 129 128
170 128 34 0 48 -6 67 -26z m-453 -371 c169 -169 268 -275 268 -287 0 -13 -97
-118 -261 -282 l-261 -261 34 -26 c166 -125 417 -142 607 -42 36 20 84 51 106
69 l40 34 -112 115 c-109 110 -113 116 -113 157 0 42 2 45 198 243 108 110
215 212 236 228 76 57 156 25 156 -62 0 -42 -3 -46 -185 -229 l-185 -185 121
-122 c106 -105 121 -124 116 -146 -9 -34 -128 -159 -202 -213 -139 -98 -266
-138 -445 -138 -179 0 -316 43 -450 142 l-55 40 -90 -88 c-50 -49 -103 -92
-118 -95 -64 -16 -117 24 -117 88 0 37 7 47 99 141 94 95 99 102 84 121 -30
41 -73 136 -95 212 -32 112 -32 295 1 408 30 109 94 224 166 303 70 77 150
142 173 142 9 0 137 -120 284 -267z"/>
<path d="M2121 1678 c-135 -180 -161 -421 -64 -611 l25 -50 201 201 202 202
-155 155 c-85 85 -158 155 -162 155 -4 0 -25 -24 -47 -52z"/>
</g>
</svg>
